<svg width="9" height="17" viewBox="0 0 9 17" fill="none" xmlns="http://www.w3.org/2000/svg">
<path d="M8.66125 0.127725L6.50108 0.125244C4.0732 0.125244 2.50519 1.74378 2.50519 4.24661V6.14793H0.332683C0.145164 6.14793 -0.0078125 6.30048 -0.0078125 6.49148V9.24485C-0.0078125 9.43213 0.145164 9.58592 0.332683 9.58592H2.50519V16.5363C2.50519 16.7261 2.65693 16.8749 2.84445 16.8749H5.67945C5.86697 16.8749 6.01871 16.7261 6.01871 16.5363V9.58592H8.56009C8.74637 9.58592 8.89935 9.43213 8.89935 9.24485V6.49148C8.89935 6.39846 8.86357 6.31288 8.80065 6.24963C8.73527 6.1839 8.65015 6.14793 8.56009 6.14793H6.01871V4.53808C6.01871 3.76292 6.20253 3.37099 7.20551 3.37099H8.66125C8.84877 3.37099 9.00051 3.2172 9.00051 3.02868V0.470035C9.00051 0.280276 8.84877 0.127725 8.66125 0.127725Z" fill="#E9862A"/>
</svg>
